<svg width="256" height="257" viewBox="0 0 256 257" fill="none" xmlns="http://www.w3.org/2000/svg">
<path fill-rule="evenodd" clip-rule="evenodd" d="M9.81226 139.044C32.6546 129.561 36.0883 117.44 35.5965 109.497C35.5295 100.215 27.5398 92.6348 17.717 92.6348C13.468 92.638 9.35858 94.0835 6.12329 96.7129C2.888 99.3423 0.737647 102.984 0.0565289 106.988C-0.131418 108.106 0.153496 109.249 0.848593 110.166C1.54369 111.083 2.59203 111.7 3.76299 111.879C4.93395 112.058 6.13162 111.786 7.09251 111.123C8.0534 110.459 8.69881 109.459 8.88676 108.341C9.24153 106.219 10.4217 104.303 12.1915 102.975C13.9614 101.647 16.1908 101.005 18.4346 101.178C20.6784 101.35 22.7715 102.324 24.296 103.905C25.8206 105.486 26.6644 107.558 26.659 109.707L26.6679 109.967C27.048 115.916 23.3996 124.094 6.24887 131.217C5.70024 131.434 5.20233 131.753 4.7842 132.155C4.36606 132.557 4.03608 133.035 3.81351 133.561C3.59094 134.086 3.48024 134.649 3.48788 135.216C3.49551 135.782 3.62132 136.342 3.85797 136.862C4.09462 137.381 4.43736 137.851 4.86619 138.243C5.29502 138.635 5.80136 138.942 6.35564 139.145C6.90993 139.348 7.50106 139.444 8.09453 139.427C8.68801 139.409 9.27195 139.279 9.81226 139.044Z" fill="#94BDF3"/>
<path fill-rule="evenodd" clip-rule="evenodd" d="M9.64247 139.109C43.6087 126.565 63.8489 114.282 101.982 113.791C103.168 113.776 104.299 113.312 105.126 112.5C105.953 111.689 106.409 110.598 106.393 109.466C106.377 108.334 105.89 107.254 105.041 106.465C104.191 105.675 103.047 105.24 101.861 105.255C62.4763 105.763 41.4939 118.191 6.41888 131.149C5.33828 131.574 4.47501 132.386 4.01395 133.411C3.5529 134.437 3.53071 135.593 3.95215 136.634C4.37359 137.675 5.20514 138.516 6.26872 138.979C7.3323 139.441 8.54333 139.488 9.64247 139.109Z" fill="#94BDF3"/>
<path fill-rule="evenodd" clip-rule="evenodd" d="M10.5634 164.255C47.2703 140.193 68.0336 131.682 142.212 130.863C222.292 129.975 234.337 91.3503 233.657 75.4649C233.626 68.1277 230.55 61.1013 225.105 55.9231C219.659 50.7448 212.287 47.8364 204.6 47.8342C196.894 47.8376 189.504 50.7615 184.055 55.9633C178.605 61.1652 175.542 68.2194 175.539 75.5759C175.538 80.5637 176.947 85.4594 179.615 89.7474C182.284 94.0354 186.115 97.5571 190.705 99.9416C191.742 100.453 192.948 100.556 194.064 100.229C195.181 99.9022 196.119 99.1716 196.678 98.1933C197.238 97.2151 197.374 96.0667 197.058 94.9937C196.742 93.9207 195.999 93.0083 194.988 92.4514C191.81 90.7993 189.156 88.3601 187.308 85.3905C185.459 82.4208 184.482 79.0305 184.481 75.5759C184.481 64.9743 193.494 56.3701 204.6 56.3701C215.702 56.3701 224.72 64.9743 224.72 75.5759L224.724 75.7594C225.359 89.7882 213.131 121.542 142.109 122.327C65.1007 123.181 43.6085 132.237 5.49771 157.222C4.5338 157.868 3.87605 158.852 3.66739 159.958C3.45874 161.065 3.71605 162.206 4.38341 163.132C5.05076 164.059 6.07424 164.696 7.23142 164.907C8.3886 165.117 9.58598 164.883 10.5634 164.255ZM91.2024 164.144C103.44 155.327 127.95 153.547 145.556 159.556C156.296 163.223 164.585 169.872 164.545 180.397V180.414C164.547 182.255 164.134 184.074 163.334 185.749C162.533 187.424 161.364 188.914 159.905 190.118C158.447 191.323 156.733 192.213 154.882 192.728C153.031 193.243 151.085 193.371 149.177 193.103C147.269 192.836 145.444 192.179 143.826 191.177C142.208 190.175 140.835 188.853 139.801 187.299C138.768 185.745 138.097 183.997 137.834 182.173C137.572 180.349 137.725 178.493 138.282 176.731C138.576 175.66 138.423 174.523 137.856 173.558C137.288 172.593 136.351 171.876 135.241 171.557C134.131 171.239 132.935 171.344 131.904 171.85C130.874 172.356 130.089 173.225 129.716 174.272C128.714 177.46 128.507 180.826 129.111 184.103C129.715 187.38 131.113 190.478 133.193 193.147C135.274 195.817 137.979 197.986 141.094 199.48C144.209 200.974 147.646 201.753 151.132 201.754C157.058 201.751 162.742 199.503 166.933 195.504C171.125 191.504 173.482 186.08 173.487 180.422C173.54 166.159 163.123 156.488 148.565 151.52C128.222 144.576 99.9521 147.141 85.8148 157.333C85.3372 157.667 84.934 158.089 84.6286 158.573C84.3232 159.058 84.1217 159.595 84.0357 160.155C83.9498 160.714 83.9812 161.284 84.128 161.832C84.2749 162.38 84.5343 162.894 84.8912 163.346C85.2482 163.797 85.6954 164.176 86.2071 164.461C86.7188 164.746 87.2846 164.931 87.8718 165.005C88.459 165.079 89.0558 165.041 89.6276 164.894C90.1993 164.746 90.7346 164.491 91.2024 164.144ZM182.63 143.663C202.173 142.689 224.063 149.71 232.2 162.902C232.489 163.402 232.879 163.841 233.349 164.194C233.818 164.547 234.357 164.806 234.933 164.957C235.51 165.108 236.112 165.146 236.704 165.071C237.297 164.996 237.867 164.808 238.382 164.519C238.897 164.23 239.346 163.845 239.703 163.387C240.059 162.929 240.316 162.408 240.458 161.853C240.6 161.299 240.624 160.724 240.528 160.161C240.433 159.597 240.221 159.058 239.903 158.575C230.367 143.103 205.079 133.996 182.165 135.135C180.98 135.194 179.869 135.7 179.075 136.541C178.281 137.382 177.869 138.49 177.931 139.621C177.993 140.752 178.522 141.813 179.404 142.571C180.285 143.329 181.445 143.721 182.63 143.663Z" fill="#94BDF3"/>
<path fill-rule="evenodd" clip-rule="evenodd" d="M47.3104 82.6351C59.2256 83.2326 76.3585 78.0428 84.7193 72.456C85.2121 72.1393 85.6338 71.7321 85.9598 71.2581C86.2859 70.784 86.5097 70.2527 86.6182 69.6952C86.7267 69.1377 86.7177 68.5651 86.5918 68.0109C86.4658 67.4567 86.2255 66.9321 85.8847 66.4676C85.544 66.0031 85.1097 65.608 84.6072 65.3056C84.1047 65.0031 83.5442 64.7992 82.9582 64.7059C82.3723 64.6126 81.7727 64.6316 81.1946 64.762C80.6164 64.8924 80.0713 65.1314 79.591 65.4651C72.4821 70.2154 57.9112 74.6199 47.7843 74.112C46.6101 74.0679 45.4649 74.4669 44.5965 75.2227C43.7281 75.9785 43.2063 77.0302 43.144 78.1504C43.0817 79.2706 43.4839 80.3692 44.2636 81.2085C45.0434 82.0477 46.1379 82.5602 47.3104 82.6351Z" fill="#C7DBF6"/>
<path fill-rule="evenodd" clip-rule="evenodd" d="M76.2557 72.3877C60.169 58.2565 68.0424 31.1935 99.8492 20.0242C116.955 14.0192 126.286 7.9929 130.981 2.93964C131.378 2.29785 131.952 1.77177 132.639 1.41808C133.327 1.06439 134.103 0.89651 134.883 0.932516C135.663 0.968522 136.418 1.20705 137.067 1.62241C137.715 2.03777 138.233 2.61421 138.564 3.28962C155.41 41.4536 111.51 103.365 76.2557 72.3877Z" fill="#C7DBF6"/>
<path fill-rule="evenodd" clip-rule="evenodd" d="M138.859 3.97241C154.896 42.1791 111.304 103.181 76.2557 72.3877C72.9373 69.5178 70.4973 65.8418 69.196 61.7519C99.0712 90.7783 144.599 42.3114 138.859 3.97241ZM11.833 224.835C18.62 217.639 32.1895 210.917 40.7336 209.478C41.9016 209.282 42.9398 208.65 43.6198 207.722C44.2998 206.794 44.5659 205.647 44.3595 204.532C44.1532 203.417 43.4914 202.426 42.5196 201.777C41.5478 201.128 40.3457 200.874 39.1777 201.071C29.1313 202.765 13.1654 210.661 5.18909 219.124C4.78259 219.538 4.46673 220.026 4.25998 220.558C4.05322 221.09 3.95974 221.656 3.98499 222.223C4.01024 222.79 4.15373 223.347 4.40704 223.86C4.66036 224.374 5.01842 224.834 5.46028 225.214C5.90213 225.593 6.4189 225.885 6.98034 226.072C7.54178 226.259 8.13661 226.337 8.73003 226.302C9.32345 226.266 9.90354 226.118 10.4363 225.867C10.9691 225.615 11.444 225.264 11.833 224.835Z" fill="#C7DBF6"/>
<path fill-rule="evenodd" clip-rule="evenodd" d="M33.2446 206.837C32.337 227.682 57.9514 241.505 88.7163 227.933C105.259 220.635 116.32 218.599 123.389 219.001C124.145 219.186 124.94 219.171 125.688 218.957C126.436 218.743 127.109 218.338 127.633 217.786C128.158 217.234 128.514 216.556 128.665 215.824C128.815 215.093 128.753 214.336 128.486 213.636C112.131 175.28 35.2297 161.136 33.2446 206.837Z" fill="#C7DBF6"/>
<path fill-rule="evenodd" clip-rule="evenodd" d="M40.0182 188.617C36.0569 193.098 33.5799 199.112 33.2446 206.837C32.337 227.681 57.9514 241.505 88.7163 227.933C105.259 220.635 116.32 218.599 123.389 219C124.079 219.171 124.803 219.174 125.494 219.01C126.186 218.846 126.824 218.52 127.35 218.061C127.203 218.017 127.058 217.964 126.917 217.903C119.969 216.444 108.706 216.982 91.2424 222.295C58.7651 232.176 35.3862 213.772 39.3252 191.805C39.5219 190.704 39.7544 189.641 40.0182 188.617ZM181.548 195.151C189.493 196.077 199.575 200.507 206.55 205.189C207.52 205.811 208.707 206.045 209.856 205.842C211.005 205.639 212.025 205.015 212.697 204.102C213.37 203.19 213.642 202.063 213.455 200.962C213.268 199.861 212.636 198.873 211.696 198.211C203.599 192.774 191.849 187.75 182.625 186.679C181.461 186.567 180.298 186.896 179.384 187.593C178.471 188.291 177.88 189.303 177.739 190.411C177.598 191.52 177.918 192.637 178.63 193.523C179.342 194.409 180.39 194.994 181.548 195.151Z" fill="#C7DBF6"/>
<path fill-rule="evenodd" clip-rule="evenodd" d="M205.504 196.645C191.657 207.2 196.41 229.508 221.465 240.268C234.002 245.649 241.097 250.681 244.839 254.851C245.218 255.494 245.773 256.027 246.444 256.393C247.116 256.758 247.879 256.943 248.651 256.927C249.424 256.911 250.178 256.694 250.832 256.301C251.486 255.907 252.015 255.352 252.364 254.693C266.828 224.583 235.455 173.816 205.504 196.645Z" fill="#C7DBF6"/>
<path fill-rule="evenodd" clip-rule="evenodd" d="M198.824 205.8C195.042 217.105 202.334 232.052 221.465 240.268C234.002 245.649 241.097 250.681 244.84 254.851C245.122 255.332 245.505 255.753 245.963 256.089C246.422 256.424 246.947 256.667 247.507 256.802C248.067 256.938 248.651 256.963 249.221 256.876C249.792 256.789 250.338 256.593 250.826 256.298C250.026 255.819 249.414 255.1 249.087 254.254C245.474 248.603 237.597 241.245 222.292 232.585C209.103 225.121 201.453 215.291 198.824 205.8Z" fill="#C7DBF6"/>
</svg>
