<svg width="488" height="512" viewBox="0 0 488 512" fill="none" xmlns="http://www.w3.org/2000/svg">
<path d="M352 40V456C352 478.08 334.08 496 312 496H112V400C112 391.2 104.8 384 96 384H0V40C0 17.92 17.92 0 40 0H312C334.08 0 352 17.92 352 40Z" fill="#AAD7FD"/>
<path d="M96 384C100.243 384 104.313 385.686 107.314 388.686C110.314 391.687 112 395.757 112 400V496C107.76 496 103.68 494.32 100.72 491.28L4.72 395.28C1.68 392.32 0 388.24 0 384H96Z" fill="#48A1FF"/>
<path d="M296 128H176C171.757 128 167.687 126.314 164.686 123.314C161.686 120.313 160 116.243 160 112C160 107.757 161.686 103.687 164.686 100.686C167.687 97.6857 171.757 96 176 96H296C300.243 96 304.313 97.6857 307.314 100.686C310.314 103.687 312 107.757 312 112C312 116.243 310.314 120.313 307.314 123.314C304.313 126.314 300.243 128 296 128ZM216 224H176C171.757 224 167.687 222.314 164.686 219.314C161.686 216.313 160 212.243 160 208C160 203.757 161.686 199.687 164.686 196.686C167.687 193.686 171.757 192 176 192H216C220.243 192 224.313 193.686 227.314 196.686C230.314 199.687 232 203.757 232 208C232 212.243 230.314 216.313 227.314 219.314C224.313 222.314 220.243 224 216 224Z" fill="#F2F2FD"/>
<path d="M79.9998 320.248C77.8982 320.252 75.8166 319.84 73.8751 319.035C71.9336 318.23 70.1706 317.049 68.6878 315.56L52.6878 299.56C51.1597 298.084 49.9408 296.318 49.1022 294.366C48.2637 292.414 47.8223 290.315 47.8038 288.19C47.7854 286.066 48.1902 283.959 48.9947 281.993C49.7992 280.026 50.9872 278.24 52.4895 276.738C53.9918 275.235 55.7782 274.047 57.7446 273.243C59.7109 272.438 61.8178 272.033 63.9423 272.052C66.0667 272.07 68.1662 272.512 70.1183 273.35C72.0704 274.189 73.8359 275.408 75.3118 276.936L79.9998 281.624L100.688 260.944C102.164 259.416 103.929 258.197 105.881 257.358C107.833 256.52 109.933 256.078 112.057 256.06C114.182 256.041 116.289 256.446 118.255 257.251C120.221 258.055 122.008 259.243 123.51 260.746C125.012 262.248 126.2 264.034 127.005 266.001C127.809 267.967 128.214 270.074 128.196 272.198C128.177 274.323 127.736 276.422 126.897 278.374C126.059 280.326 124.84 282.092 123.312 283.568L91.3118 315.568C88.1918 318.688 84.0958 320.248 79.9998 320.248ZM79.9998 224.248C77.8982 224.252 75.8166 223.84 73.8751 223.035C71.9336 222.23 70.1706 221.049 68.6878 219.56L52.6878 203.56C51.1597 202.084 49.9408 200.318 49.1022 198.366C48.2637 196.414 47.8223 194.315 47.8038 192.19C47.7854 190.066 48.1902 187.959 48.9947 185.993C49.7992 184.026 50.9872 182.24 52.4895 180.738C53.9918 179.235 55.7782 178.047 57.7446 177.243C59.7109 176.438 61.8178 176.033 63.9423 176.052C66.0667 176.07 68.1662 176.512 70.1183 177.35C72.0704 178.189 73.8359 179.408 75.3118 180.936L79.9998 185.624L100.688 164.944C102.164 163.416 103.929 162.197 105.881 161.358C107.833 160.52 109.933 160.078 112.057 160.06C114.182 160.041 116.289 160.446 118.255 161.251C120.221 162.055 122.008 163.243 123.51 164.746C125.012 166.248 126.2 168.034 127.005 170.001C127.809 171.967 128.214 174.074 128.196 176.198C128.177 178.323 127.736 180.422 126.897 182.374C126.059 184.326 124.84 186.092 123.312 187.568L91.3118 219.568C88.1918 222.688 84.0958 224.248 79.9998 224.248ZM79.9998 128.248C77.8982 128.252 75.8166 127.84 73.8751 127.035C71.9336 126.23 70.1706 125.049 68.6878 123.56L52.6878 107.56C51.1597 106.084 49.9408 104.318 49.1022 102.366C48.2637 100.414 47.8223 98.3148 47.8038 96.1904C47.7854 94.0659 48.1902 91.959 48.9947 89.9927C49.7992 88.0263 50.9872 86.2399 52.4895 84.7376C53.9918 83.2353 55.7782 82.0473 57.7446 81.2428C59.7109 80.4383 61.8178 80.0335 63.9423 80.0519C66.0667 80.0704 68.1662 80.5118 70.1183 81.3503C72.0704 82.1889 73.8359 83.4078 75.3118 84.9359L79.9998 89.6239L100.688 68.9439C102.164 67.4158 103.929 66.1969 105.881 65.3583C107.833 64.5198 109.933 64.0784 112.057 64.0599C114.182 64.0415 116.289 64.4463 118.255 65.2508C120.221 66.0553 122.008 67.2433 123.51 68.7456C125.012 70.2479 126.2 72.0343 127.005 74.0007C127.809 75.967 128.214 78.0739 128.196 80.1984C128.177 82.3228 127.736 84.4224 126.897 86.3744C126.059 88.3265 124.84 90.092 123.312 91.5679L91.3118 123.568C88.1918 126.688 84.0958 128.248 79.9998 128.248Z" fill="#2F80ED"/>
<path d="M336 512C419.947 512 488 443.947 488 360C488 276.053 419.947 208 336 208C252.053 208 184 276.053 184 360C184 443.947 252.053 512 336 512Z" fill="#2F80ED"/>
<path d="M296 424C292.836 423.999 289.743 423.061 287.113 421.302C284.482 419.544 282.432 417.046 281.221 414.122C280.01 411.199 279.694 407.983 280.311 404.879C280.928 401.776 282.451 398.926 284.688 396.688L320 361.368V288C320 283.757 321.686 279.687 324.686 276.686C327.687 273.686 331.757 272 336 272C340.243 272 344.313 273.686 347.314 276.686C350.314 279.687 352 283.757 352 288V368C351.999 372.243 350.313 376.312 347.312 379.312L307.312 419.312C305.829 420.801 304.066 421.982 302.125 422.787C300.183 423.592 298.102 424.004 296 424Z" fill="#F2F2FD"/>
</svg>
